<?xml version="1.0" encoding="utf-8"?>
<!-- Generator: Adobe Illustrator 26.4.1, SVG Export Plug-In . SVG Version: 6.00 Build 0)  -->
<svg version="1.0" id="Layer_1" xmlns="http://www.w3.org/2000/svg" xmlns:xlink="http://www.w3.org/1999/xlink" x="0px" y="0px"
	 viewBox="0 0 1124 532" style="enable-background:new 0 0 1124 532;" xml:space="preserve">
<style type="text/css">
	.st0{fill:#23133A;}
	.st1{fill:none;stroke:#59C097;stroke-width:3;stroke-linecap:round;stroke-linejoin:round;stroke-miterlimit:10;}
	.st2{fill:#468CCB;}
	.st3{fill:#FFFFFF;}
	
		.st4{fill:none;stroke:#FFFFFF;stroke-width:5;stroke-linecap:round;stroke-linejoin:round;stroke-miterlimit:10;stroke-dasharray:2,200;}
	
		.st5{fill:none;stroke:#FFFFFF;stroke-width:5;stroke-linecap:round;stroke-linejoin:round;stroke-miterlimit:10;stroke-dasharray:20,200;}
	
		.st6{fill:none;stroke:#FFFFFF;stroke-width:5;stroke-linecap:round;stroke-linejoin:round;stroke-miterlimit:10;stroke-dasharray:80,100;}
	.st7{fill:#59C097;}
	.st8{fill:none;stroke:#FFFFFF;stroke-width:4;stroke-linecap:round;stroke-linejoin:round;stroke-miterlimit:10;}
	.st9{fill:none;stroke:#468CCB;stroke-width:4;stroke-miterlimit:10;}
	.st10{fill:none;stroke:#FFFFFF;stroke-width:4;stroke-miterlimit:10;}
</style>
<rect x="0.15" y="-0.08" class="st0" width="1123.17" height="531.61"/>
<path class="st1" d="M449.48,423.08l-41.19,3.97c-1.63,0.16-3.18-0.31-4.4-1.21v-0.01c-1.42-1.03-2.41-2.66-2.59-4.55l-3.97-41.18
	c-0.34-3.53,2.24-6.66,5.77-7l41.18-3.97c1.69-0.16,3.29,0.34,4.53,1.3c1.35,1.05,2.29,2.63,2.46,4.46l3.96,41.19
	C455.59,419.61,453,422.74,449.48,423.08z"/>
<rect x="347.39" y="264.83" transform="matrix(0.9954 -0.0959 0.0959 0.9954 -25.4315 52.9509)" class="st2" width="381.56" height="52.44"/>
<rect x="559.01" y="392.98" transform="matrix(0.9954 -0.0959 0.0959 0.9954 -35.8607 60.5639)" class="st3" width="106.29" height="20.76"/>
<rect x="555.27" y="352.98" transform="matrix(0.9954 -0.0959 0.0959 0.9954 -31.9443 62.0534)" class="st3" width="148.69" height="20.76"/>
<path class="st4" d="M726.77,257.36L726.77,257.36l-4.66-48.35c-0.86-8.95-8.82-15.51-17.77-14.64l-347.58,33.49
	c-8.95,0.86-15.51,8.82-14.64,17.77l4.48,46.49l0,0l15.93,165.32c0.86,8.95,8.82,15.51,17.77,14.64l347.58-33.49
	c8.95-0.86,15.51-8.82,14.64-17.77L726.77,257.36z"/>
<g>
	<polygon class="st3" points="708.26,418.12 718.96,456.78 726.65,441.64 744.75,439.17 	"/>
	
		<rect x="729.74" y="437.96" transform="matrix(0.7937 -0.6083 0.6083 0.7937 -122.5565 538.5114)" class="st3" width="6" height="24.01"/>
</g>
<path class="st5" d="M726.77,257.36L726.77,257.36l-4.66-48.35c-0.86-8.95-8.82-15.51-17.77-14.64l-347.58,33.49
	c-8.95,0.86-15.51,8.82-14.64,17.77l4.48,46.49l0,0l15.93,165.32c0.86,8.95,8.82,15.51,17.77,14.64l347.58-33.49
	c8.95-0.86,15.51-8.82,14.64-17.77L726.77,257.36z"/>
<path class="st6" d="M726.77,257.36L726.77,257.36l-4.66-48.35c-0.86-8.95-8.82-15.51-17.77-14.64l-347.58,33.49
	c-8.95,0.86-15.51,8.82-14.64,17.77l4.48,46.49l0,0l15.93,165.32c0.86,8.95,8.82,15.51,17.77,14.64l347.58-33.49
	c8.95-0.86,15.51-8.82,14.64-17.77L726.77,257.36z"/>
<path class="st7" d="M449.48,423.08l-41.19,3.97c-1.63,0.16-3.18-0.31-4.4-1.21v-0.01l44.91-55.39l0.01-0.01
	c1.35,1.05,2.29,2.63,2.46,4.46l3.96,41.19C455.59,419.61,453,422.74,449.48,423.08z"/>
<polyline class="st8" points="398.58,393 426.29,389.92 429.59,405.97 454.02,403.37 "/>
<path class="st9" d="M0.14,429.77c0,0,74.03,16.88,63.02,103.6"/>
<path class="st9" d="M861.51,531.53c0,0,17.57-136.21,127.04-148.83c109.47-12.63,134.78-199.53,134.78-199.53"/>
<path class="st1" d="M953.35,0.88c0,0-23.66,500.85,167.75,480.06"/>
<path class="st10" d="M0.14,248.5c0,0,158.34,0,174.92,283.03"/>
<path class="st10" d="M1009.7,531.53c0,0-66.29-381.15,111.4-481.81"/>
<path class="st3" d="M256.15,478.58c0,3.68-2.98,6.66-6.66,6.66c-3.68,0-6.66-2.98-6.66-6.66s2.98-6.66,6.66-6.66
	C253.17,471.93,256.15,474.91,256.15,478.58z"/>
<path class="st3" d="M837.96,351.99c0,3.68-2.98,6.66-6.66,6.66s-6.66-2.98-6.66-6.66s2.98-6.66,6.66-6.66
	S837.96,348.31,837.96,351.99z"/>
<circle class="st3" cx="917.65" cy="126.48" r="6.66"/>
<path class="st2" d="M242.84,283.87c0,3.68-2.98,6.66-6.66,6.66c-3.68,0-6.66-2.98-6.66-6.66s2.98-6.66,6.66-6.66
	C239.86,277.21,242.84,280.19,242.84,283.87z"/>
<path class="st2" d="M1072.1,353.71c1.48,3.36-0.04,7.29-3.4,8.78c-3.36,1.48-7.29-0.04-8.78-3.4c-1.48-3.36,0.04-7.29,3.4-8.78
	C1066.68,348.83,1070.61,350.35,1072.1,353.71z"/>
<circle class="st2" cx="56.91" cy="421.14" r="6.66"/>
<path class="st2" d="M805.8,458.62c0,2.68-2.17,4.86-4.86,4.86c-2.68,0-4.86-2.17-4.86-4.86c0-2.68,2.17-4.86,4.86-4.86
	C803.62,453.77,805.8,455.94,805.8,458.62z"/>
</svg>
